<mxfile host="app.diagrams.net" modified="2022-03-18T01:58:25.314Z" agent="5.0 (Windows NT 10.0; Win64; x64) AppleWebKit/537.36 (KHTML, like Gecko) Chrome/99.0.4844.51 Safari/537.36" etag="dyrjaDYFl_ogqKUlK2-V" version="17.1.3" type="github" pages="2">
  <diagram id="OeIHxiRGo6S6o10ia1zx" name="Page-1">
    <mxGraphModel dx="1422" dy="794" grid="1" gridSize="12" guides="1" tooltips="1" connect="1" arrows="1" fold="1" page="1" pageScale="1" pageWidth="850" pageHeight="1100" math="0" shadow="0">
      <root>
        <mxCell id="0" />
        <mxCell id="1" parent="0" />
        <mxCell id="WEldt-L0lvi8PVt7wTrO-10" value="pizza&amp;nbsp;" style="strokeWidth=1;shadow=0;dashed=0;align=center;html=1;shape=mxgraph.mockup.containers.window;align=left;verticalAlign=top;spacingLeft=8;strokeColor2=#008cff;strokeColor3=#c4c4c4;fontColor=#666666;mainText=;fontSize=17;labelBackgroundColor=none;" parent="1" vertex="1">
          <mxGeometry x="24" y="320" width="732" height="780" as="geometry" />
        </mxCell>
        <mxCell id="WEldt-L0lvi8PVt7wTrO-24" value="&#xa;&#xa;&lt;span lang=&quot;EN-US&quot; class=&quot;TextRun SCXW166447480 BCX0&quot; style=&quot;margin: 0px; padding: 0px; font-variant: normal; font-style: normal; letter-spacing: normal; text-align: left; text-indent: 0px; text-transform: none; word-spacing: 0px; background-color: rgb(255, 255, 255); color: rgb(49, 49, 49); font-size: 10.5pt; line-height: 17.2667px; font-family: &amp;quot;open sans&amp;quot;, &amp;quot;open sans_embeddedfont&amp;quot;, &amp;quot;open sans_msfontservice&amp;quot;, sans-serif; font-weight: bold;&quot;&gt;&lt;span class=&quot;NormalTextRun SCXW166447480 BCX0&quot; style=&quot;margin: 0px ; padding: 0px&quot;&gt;Gourmet pizzas&lt;/span&gt;&lt;/span&gt;&lt;span class=&quot;EOP SCXW166447480 BCX0&quot; style=&quot;margin: 0px; padding: 0px; font-style: normal; font-weight: 400; letter-spacing: normal; text-align: left; text-indent: 0px; text-transform: none; word-spacing: 0px; background-color: rgb(255, 255, 255); font-size: 10.5pt; line-height: 17.2667px; font-family: &amp;quot;open sans&amp;quot;, &amp;quot;open sans_embeddedfont&amp;quot;, &amp;quot;open sans_msfontservice&amp;quot;, sans-serif; color: rgb(49, 49, 49);&quot;&gt;&amp;nbsp;&lt;/span&gt;&#xa;&#xa;" style="text;html=1;strokeColor=none;fillColor=none;align=center;verticalAlign=middle;whiteSpace=wrap;rounded=0;" parent="1" vertex="1">
          <mxGeometry x="324" y="456" width="132" height="30" as="geometry" />
        </mxCell>
        <mxCell id="GcgZZKDhvCRHyH7AHhgR-1" value="&#xa;&#xa;&lt;span lang=&quot;EN-US&quot; class=&quot;TextRun SCXW215827870 BCX0&quot; style=&quot;margin: 0px; padding: 0px; color: rgb(0, 0, 0); font-style: normal; letter-spacing: normal; text-align: left; text-indent: 0px; text-transform: none; word-spacing: 0px; background-color: rgb(255, 255, 255); font-size: 11pt; line-height: 18.3458px; font-family: &amp;quot;open sans&amp;quot;, &amp;quot;open sans_embeddedfont&amp;quot;, &amp;quot;open sans_msfontservice&amp;quot;, sans-serif; font-weight: bold;&quot;&gt;&lt;span class=&quot;NormalTextRun SCXW215827870 BCX0&quot; style=&quot;margin: 0px ; padding: 0px&quot;&gt;Classic&amp;nbsp;&lt;/span&gt;&lt;span class=&quot;NormalTextRun SCXW215827870 BCX0&quot; style=&quot;margin: 0px ; padding: 0px&quot;&gt;pizzaâ€™s&lt;/span&gt;&lt;/span&gt;&lt;span class=&quot;EOP SCXW215827870 BCX0&quot; style=&quot;margin: 0px; padding: 0px; color: rgb(0, 0, 0); font-style: normal; font-weight: 400; letter-spacing: normal; text-align: left; text-indent: 0px; text-transform: none; word-spacing: 0px; background-color: rgb(255, 255, 255); font-size: 11pt; line-height: 18.3458px; font-family: &amp;quot;open sans&amp;quot;, &amp;quot;open sans_embeddedfont&amp;quot;, &amp;quot;open sans_msfontservice&amp;quot;, sans-serif;&quot;&gt;&amp;nbsp;&lt;/span&gt;&#xa;&#xa;" style="text;html=1;strokeColor=none;fillColor=none;align=center;verticalAlign=middle;whiteSpace=wrap;rounded=0;" vertex="1" parent="1">
          <mxGeometry x="84" y="456" width="120" height="30" as="geometry" />
        </mxCell>
        <mxCell id="E2cKHjokbWYPnYQh1oeq-1" value="" style="rounded=0;whiteSpace=wrap;html=1;" vertex="1" parent="1">
          <mxGeometry x="36" y="492" width="228" height="288" as="geometry" />
        </mxCell>
        <mxCell id="E2cKHjokbWYPnYQh1oeq-5" value="&#xa;&#xa;&lt;span lang=&quot;EN-US&quot; class=&quot;TextRun SCXW6373005 BCX0&quot; style=&quot;margin: 0px; padding: 0px; font-variant: normal; font-style: normal; letter-spacing: normal; text-align: left; text-indent: 0px; text-transform: none; word-spacing: 0px; background-color: rgb(255, 255, 255); color: rgb(49, 49, 49); font-size: 10.5pt; line-height: 17.2667px; font-family: &amp;quot;open sans&amp;quot;, &amp;quot;open sans_embeddedfont&amp;quot;, &amp;quot;open sans_msfontservice&amp;quot;, sans-serif; font-weight: bold;&quot;&gt;&lt;span class=&quot;NormalTextRun SCXW6373005 BCX0&quot; style=&quot;margin: 0px ; padding: 0px&quot;&gt;Americano - $8.50&lt;/span&gt;&lt;/span&gt;&lt;span class=&quot;EOP SCXW6373005 BCX0&quot; style=&quot;margin: 0px; padding: 0px; font-style: normal; font-weight: 400; letter-spacing: normal; text-align: left; text-indent: 0px; text-transform: none; word-spacing: 0px; background-color: rgb(255, 255, 255); font-size: 10.5pt; line-height: 17.2667px; font-family: &amp;quot;open sans&amp;quot;, &amp;quot;open sans_embeddedfont&amp;quot;, &amp;quot;open sans_msfontservice&amp;quot;, sans-serif; color: rgb(49, 49, 49);&quot;&gt;&amp;nbsp;&lt;/span&gt;&#xa;&#xa;" style="text;html=1;strokeColor=none;fillColor=none;align=center;verticalAlign=middle;whiteSpace=wrap;rounded=0;" vertex="1" parent="1">
          <mxGeometry x="66" y="504" width="156" height="30" as="geometry" />
        </mxCell>
        <mxCell id="E2cKHjokbWYPnYQh1oeq-6" value="&#xa;&#xa;&lt;span lang=&quot;EN-US&quot; class=&quot;TextRun SCXW138891183 BCX0&quot; style=&quot;margin: 0px; padding: 0px; font-variant: normal; font-style: normal; letter-spacing: normal; text-align: left; text-indent: 0px; text-transform: none; word-spacing: 0px; background-color: rgb(255, 255, 255); color: rgb(49, 49, 49); font-size: 10.5pt; line-height: 17.2667px; font-family: &amp;quot;open sans&amp;quot;, &amp;quot;open sans_embeddedfont&amp;quot;, &amp;quot;open sans_msfontservice&amp;quot;, sans-serif; font-weight: bold;&quot;&gt;&lt;span class=&quot;NormalTextRun SCXW138891183 BCX0&quot; style=&quot;margin: 0px ; padding: 0px&quot;&gt;Classic Veggie - $8.50&lt;/span&gt;&lt;/span&gt;&lt;span class=&quot;EOP SCXW138891183 BCX0&quot; style=&quot;margin: 0px; padding: 0px; font-style: normal; font-weight: 400; letter-spacing: normal; text-align: left; text-indent: 0px; text-transform: none; word-spacing: 0px; background-color: rgb(255, 255, 255); font-size: 10.5pt; line-height: 17.2667px; font-family: &amp;quot;open sans&amp;quot;, &amp;quot;open sans_embeddedfont&amp;quot;, &amp;quot;open sans_msfontservice&amp;quot;, sans-serif; color: rgb(49, 49, 49);&quot;&gt;&amp;nbsp;&lt;/span&gt;&#xa;&#xa;" style="text;html=1;strokeColor=none;fillColor=none;align=center;verticalAlign=middle;whiteSpace=wrap;rounded=0;" vertex="1" parent="1">
          <mxGeometry x="66" y="550" width="156" height="30" as="geometry" />
        </mxCell>
        <mxCell id="E2cKHjokbWYPnYQh1oeq-7" value="&#xa;&#xa;&lt;span lang=&quot;EN-US&quot; class=&quot;TextRun SCXW78922887 BCX0&quot; style=&quot;margin: 0px; padding: 0px; font-variant: normal; font-style: normal; letter-spacing: normal; text-align: left; text-indent: 0px; text-transform: none; word-spacing: 0px; background-color: rgb(255, 255, 255); color: rgb(49, 49, 49); font-size: 10.5pt; line-height: 17.2667px; font-family: &amp;quot;open sans&amp;quot;, &amp;quot;open sans_embeddedfont&amp;quot;, &amp;quot;open sans_msfontservice&amp;quot;, sans-serif; font-weight: bold;&quot;&gt;&lt;span class=&quot;NormalTextRun SCXW78922887 BCX0&quot; style=&quot;margin: 0px ; padding: 0px&quot;&gt;Pepperoni - $8.50&lt;/span&gt;&lt;/span&gt;&lt;span class=&quot;EOP SCXW78922887 BCX0&quot; style=&quot;margin: 0px; padding: 0px; font-style: normal; font-weight: 400; letter-spacing: normal; text-align: left; text-indent: 0px; text-transform: none; word-spacing: 0px; background-color: rgb(255, 255, 255); font-size: 10.5pt; line-height: 17.2667px; font-family: &amp;quot;open sans&amp;quot;, &amp;quot;open sans_embeddedfont&amp;quot;, &amp;quot;open sans_msfontservice&amp;quot;, sans-serif; color: rgb(49, 49, 49);&quot;&gt;&amp;nbsp;&lt;/span&gt;&#xa;&#xa;" style="text;html=1;strokeColor=none;fillColor=none;align=center;verticalAlign=middle;whiteSpace=wrap;rounded=0;" vertex="1" parent="1">
          <mxGeometry x="72" y="594" width="144" height="30" as="geometry" />
        </mxCell>
        <mxCell id="E2cKHjokbWYPnYQh1oeq-9" value="&#xa;&#xa;&lt;span lang=&quot;EN-US&quot; class=&quot;TextRun SCXW229307784 BCX0&quot; style=&quot;margin: 0px; padding: 0px; font-variant: normal; font-style: normal; letter-spacing: normal; text-align: left; text-indent: 0px; text-transform: none; word-spacing: 0px; background-color: rgb(255, 255, 255); color: rgb(49, 49, 49); font-size: 10.5pt; line-height: 17.2667px; font-family: &amp;quot;open sans&amp;quot;, &amp;quot;open sans_embeddedfont&amp;quot;, &amp;quot;open sans_msfontservice&amp;quot;, sans-serif; font-weight: bold;&quot;&gt;&lt;span class=&quot;NormalTextRun SCXW229307784 BCX0&quot; style=&quot;margin: 0px ; padding: 0px&quot;&gt;Beef &amp;amp; Onion - $8.50&lt;/span&gt;&lt;/span&gt;&lt;span class=&quot;EOP SCXW229307784 BCX0&quot; style=&quot;margin: 0px; padding: 0px; font-style: normal; font-weight: 400; letter-spacing: normal; text-align: left; text-indent: 0px; text-transform: none; word-spacing: 0px; background-color: rgb(255, 255, 255); font-size: 10.5pt; line-height: 17.2667px; font-family: &amp;quot;open sans&amp;quot;, &amp;quot;open sans_embeddedfont&amp;quot;, &amp;quot;open sans_msfontservice&amp;quot;, sans-serif; color: rgb(49, 49, 49);&quot;&gt;&amp;nbsp;&lt;/span&gt;&#xa;&#xa;" style="text;html=1;strokeColor=none;fillColor=none;align=center;verticalAlign=middle;whiteSpace=wrap;rounded=0;" vertex="1" parent="1">
          <mxGeometry x="72" y="636" width="144" height="30" as="geometry" />
        </mxCell>
        <mxCell id="E2cKHjokbWYPnYQh1oeq-11" value="&#xa;&#xa;&lt;span lang=&quot;EN-US&quot; class=&quot;TextRun SCXW258297688 BCX0&quot; style=&quot;margin: 0px; padding: 0px; font-variant: normal; font-style: normal; letter-spacing: normal; text-align: left; text-indent: 0px; text-transform: none; word-spacing: 0px; background-color: rgb(255, 255, 255); color: rgb(49, 49, 49); font-size: 10.5pt; line-height: 17.2667px; font-family: &amp;quot;open sans&amp;quot;, &amp;quot;open sans_embeddedfont&amp;quot;, &amp;quot;open sans_msfontservice&amp;quot;, sans-serif; font-weight: bold;&quot;&gt;&lt;span class=&quot;NormalTextRun SCXW258297688 BCX0&quot; style=&quot;margin: 0px ; padding: 0px&quot;&gt;Hawaiian - $8.50&lt;/span&gt;&lt;/span&gt;&lt;span class=&quot;EOP SCXW258297688 BCX0&quot; style=&quot;margin: 0px; padding: 0px; font-style: normal; font-weight: 400; letter-spacing: normal; text-align: left; text-indent: 0px; text-transform: none; word-spacing: 0px; background-color: rgb(255, 255, 255); font-size: 10.5pt; line-height: 17.2667px; font-family: &amp;quot;open sans&amp;quot;, &amp;quot;open sans_embeddedfont&amp;quot;, &amp;quot;open sans_msfontservice&amp;quot;, sans-serif; color: rgb(49, 49, 49);&quot;&gt;&amp;nbsp;&lt;/span&gt;&#xa;&#xa;" style="text;html=1;strokeColor=none;fillColor=none;align=center;verticalAlign=middle;whiteSpace=wrap;rounded=0;" vertex="1" parent="1">
          <mxGeometry x="60" y="684" width="168" height="30" as="geometry" />
        </mxCell>
        <mxCell id="E2cKHjokbWYPnYQh1oeq-13" value="&#xa;&#xa;&lt;span lang=&quot;EN-US&quot; class=&quot;TextRun SCXW233343216 BCX0&quot; style=&quot;margin: 0px; padding: 0px; font-variant: normal; font-style: normal; letter-spacing: normal; text-align: left; text-indent: 0px; text-transform: none; word-spacing: 0px; background-color: rgb(255, 255, 255); color: rgb(49, 49, 49); font-size: 10.5pt; line-height: 17.2667px; font-family: &amp;quot;open sans&amp;quot;, &amp;quot;open sans_embeddedfont&amp;quot;, &amp;quot;open sans_msfontservice&amp;quot;, sans-serif; font-weight: bold;&quot;&gt;&lt;span class=&quot;NormalTextRun SCXW233343216 BCX0&quot; style=&quot;margin: 0px ; padding: 0px&quot;&gt;Cheesy Garlic - $8.50&lt;/span&gt;&lt;/span&gt;&lt;span class=&quot;EOP SCXW233343216 BCX0&quot; style=&quot;margin: 0px; padding: 0px; font-style: normal; font-weight: 400; letter-spacing: normal; text-align: left; text-indent: 0px; text-transform: none; word-spacing: 0px; background-color: rgb(255, 255, 255); font-size: 10.5pt; line-height: 17.2667px; font-family: &amp;quot;open sans&amp;quot;, &amp;quot;open sans_embeddedfont&amp;quot;, &amp;quot;open sans_msfontservice&amp;quot;, sans-serif; color: rgb(49, 49, 49);&quot;&gt;&amp;nbsp;&lt;/span&gt;&#xa;&#xa;" style="text;html=1;strokeColor=none;fillColor=none;align=center;verticalAlign=middle;whiteSpace=wrap;rounded=0;" vertex="1" parent="1">
          <mxGeometry x="60" y="726" width="168" height="30" as="geometry" />
        </mxCell>
        <mxCell id="E2cKHjokbWYPnYQh1oeq-14" value="" style="rounded=0;whiteSpace=wrap;html=1;" vertex="1" parent="1">
          <mxGeometry x="288" y="492" width="216" height="288" as="geometry" />
        </mxCell>
        <mxCell id="E2cKHjokbWYPnYQh1oeq-19" value="Text" style="text;html=1;strokeColor=none;fillColor=none;align=center;verticalAlign=middle;whiteSpace=wrap;rounded=0;" vertex="1" parent="1">
          <mxGeometry x="216" y="360" width="348" height="84" as="geometry" />
        </mxCell>
      </root>
    </mxGraphModel>
  </diagram>
  <diagram id="qb61e6Q5uCwr91oQOZQd" name="Page-2">
    <mxGraphModel dx="1422" dy="794" grid="1" gridSize="10" guides="1" tooltips="1" connect="1" arrows="1" fold="1" page="1" pageScale="1" pageWidth="850" pageHeight="1100" math="0" shadow="0">
      <root>
        <mxCell id="bYoLpiO9iF57CYAKjTNu-0" />
        <mxCell id="bYoLpiO9iF57CYAKjTNu-1" parent="bYoLpiO9iF57CYAKjTNu-0" />
        <mxCell id="bYoLpiO9iF57CYAKjTNu-3" value="" style="rounded=1;whiteSpace=wrap;html=1;" vertex="1" parent="bYoLpiO9iF57CYAKjTNu-1">
          <mxGeometry x="20" y="230" width="800" height="430" as="geometry" />
        </mxCell>
        <mxCell id="bYoLpiO9iF57CYAKjTNu-5" value="" style="rounded=0;whiteSpace=wrap;html=1;" vertex="1" parent="bYoLpiO9iF57CYAKjTNu-1">
          <mxGeometry x="80" y="260" width="190" height="360" as="geometry" />
        </mxCell>
        <mxCell id="bYoLpiO9iF57CYAKjTNu-6" value="" style="rounded=0;whiteSpace=wrap;html=1;" vertex="1" parent="bYoLpiO9iF57CYAKjTNu-1">
          <mxGeometry x="320" y="260" width="190" height="360" as="geometry" />
        </mxCell>
      </root>
    </mxGraphModel>
  </diagram>
</mxfile>
